# xmcd
#
# Track frame offsets: 
#        150
#        17387
#        44882
#        62361
#        84542
#        109166
#        136131
#        161205
#        183200
#        216388
#        237757
#        259390
#        290209
#        323509
#        340065
#
# Disc length: 4799 seconds
#
# Revision: 2
# Processed by: cddbd v1.5.2PL0 Copyright (c) Steve Scherf et al.
# Submitted via: ExactAudioCopy v1.3
#
DISCID=da12bd0f
DTITLE=Various Artist - The Best of Ambient Lounge
DYEAR=2005
DGENRE=Lounge
TTITLE0=Paul van Dyke feat. Peter Heppner - Wir sind wir (Ambient Mix)
TTITLE1=Ian Pooley - Hotel Boogie
TTITLE2=Jakatta feat. Seal - My vision (Summer in white edit)
TTITLE3=Blank and Jones - Beyond time (Ambient Mix)
TTITLE4=Lambchop - Up with people (Zero 7 Remix)
TTITLE5=Spiller - Cry baby (Röyksopp's Malselves Memorabilia Mix)
TTITLE6=José Padilla - Adios ayer
TTITLE7=Fernandez, Paco - Never knew a light like this
TTITLE8=Beanfield - The season (Swag's vocal Mix)
TTITLE9=Minnie Riperton - Inside my love
TTITLE10=Nitin Sawhney - Sunset (Prophesy album version)
TTITLE11=Dusted - Always remember to respect your mother (Part 1) (Ben
TTITLE11=t Remix)
TTITLE12=Levitation - More than ever people
TTITLE13=Bent - Beautiful otherness
TTITLE14=Jam and Spoon feat. Rea Garvey - Set my free (Empty Rooms) (Lau
TTITLE14=tlos Mix)
EXTD=
EXTT0=
EXTT1=
EXTT2=
EXTT3=
EXTT4=
EXTT5=
EXTT6=
EXTT7=
EXTT8=
EXTT9=
EXTT10=
EXTT11=
EXTT12=
EXTT13=
EXTT14=
PLAYORDER=
